<?xml version="1.0" encoding="utf-8"?>
<!-- Generator: Adobe Illustrator 15.0.0, SVG Export Plug-In . SVG Version: 6.00 Build 0)  -->
<!DOCTYPE svg PUBLIC "-//W3C//DTD SVG 1.1//EN" "http://www.w3.org/Graphics/SVG/1.1/DTD/svg11.dtd">
<svg version="1.1" id="Layer_1" xmlns="http://www.w3.org/2000/svg" xmlns:xlink="http://www.w3.org/1999/xlink" x="0px" y="0px"
	 width="28.346px" height="28.346px" viewBox="0 0 28.346 28.346" enable-background="new 0 0 28.346 28.346" xml:space="preserve">
<g color='white'>
	<g>
		<polygon fill="#333333" points="10.517,13.455 11.365,13.455 10.941,12.532 		"/>
		<path fill="#333333" d="M14.174,1.502c-7.648,0-13.85,4.896-13.85,10.939c0,3.588,2.196,6.774,5.576,8.771
			c0.71,0.419,0.089,1.46,0.089,1.46l-2.78,3.64C3.158,26.46,3.2,26.62,3.31,26.728c0.075,0.075,0.175,0.116,0.282,0.116
			c0.083,0,0.166-0.033,0.24-0.091c0,0,1.705-0.342,4.096-1.512c1.949-0.879,3.751-2.044,3.751-2.044
			c0.815,0.117,1.646,0.183,2.495,0.183c7.646,0,13.848-4.896,13.848-10.938C28.022,6.398,21.821,1.502,14.174,1.502z M7.167,15.577
			H7.164c0.001,0.015,0.003,0.029,0.003,0.045c0,0.539-0.438,0.976-0.977,0.976c-0.538,0-0.974-0.437-0.974-0.976
			c0-0.016,0.001-0.03,0.001-0.045H5.217v-4.609H3.908v-0.004c-0.46-0.033-0.825-0.417-0.825-0.888s0.365-0.854,0.825-0.888V9.187
			h4.35c0.492,0,0.89,0.398,0.89,0.89s-0.397,0.892-0.89,0.892H7.167V15.577z M24.286,16.553c-0.316,0-0.599-0.152-0.776-0.388
			l-0.001,0.001l-1.695-2.295l-0.357,0.357v1.375c0,0.539-0.437,0.976-0.974,0.976c-0.422,0-0.778-0.269-0.914-0.642
			c-0.087,0.367-0.416,0.642-0.809,0.642v0.02h-3.641v-0.024c-0.364-0.033-0.67-0.27-0.807-0.594
			c-0.014,0.035-0.023,0.074-0.042,0.107c-0.165,0.304-0.486,0.511-0.857,0.511h-0.001c-0.05,0-0.102-0.006-0.152-0.014
			c-0.007,0-0.017-0.002-0.024-0.004c-0.048-0.009-0.094-0.021-0.139-0.036c-0.007-0.003-0.015-0.005-0.023-0.008
			c-0.046-0.018-0.09-0.037-0.132-0.061c-0.002-0.001-0.004-0.002-0.006-0.003c-0.043-0.023-0.084-0.053-0.125-0.085
			c-0.001-0.001-0.003-0.002-0.005-0.003c-0.04-0.031-0.076-0.067-0.111-0.105c-0.001-0.002-0.003-0.005-0.006-0.007
			c-0.106-0.117-0.183-0.26-0.222-0.418l-0.316-0.688h-2.42l-0.315,0.688c-0.105,0.426-0.488,0.743-0.947,0.743
			c-0.537,0-0.975-0.437-0.975-0.976c0-0.127,0.024-0.246,0.067-0.357l0.002-0.005c0.012-0.027,0.024-0.055,0.038-0.083l2.364-5.189
			c0.082-0.456,0.48-0.801,0.96-0.801c0.005,0,0.011,0,0.016,0c0.006,0,0.01,0,0.017,0c0.479,0,0.877,0.345,0.959,0.801l2.318,5.09
			v-4.727h0.008c-0.004-0.037-0.008-0.076-0.008-0.114c0-0.539,0.438-0.976,0.977-0.976c0.538,0,0.975,0.437,0.975,0.976
			c0,0.039-0.003,0.077-0.007,0.114h0.007v4.561h2.574c0.328,0,0.61,0.194,0.745,0.472v-5.14c0-0.539,0.438-0.977,0.978-0.977
			c0.537,0,0.974,0.438,0.974,0.977v1.227L23.328,9.6c0.18-0.204,0.439-0.332,0.729-0.332c0.539,0,0.975,0.438,0.975,0.977
			c0,0.25-0.093,0.477-0.248,0.648l0.002,0.002l-0.015,0.015c-0.016,0.015-0.031,0.031-0.047,0.047l-1.519,1.52l1.84,2.489l0,0
			c0.136,0.167,0.217,0.38,0.217,0.612C25.263,16.115,24.825,16.553,24.286,16.553z"/>
		<path fill="#333333" d="M14.313,15.98"/>
	</g>
</g>
</svg>
