<?xml version="1.0" encoding="utf-8"?>
<!-- Generator: Adobe Illustrator 15.0.0, SVG Export Plug-In . SVG Version: 6.00 Build 0)  -->
<!DOCTYPE svg PUBLIC "-//W3C//DTD SVG 1.1//EN" "http://www.w3.org/Graphics/SVG/1.1/DTD/svg11.dtd">
<svg version="1.1" id="Layer_1" xmlns="http://www.w3.org/2000/svg" xmlns:xlink="http://www.w3.org/1999/xlink" x="0px" y="0px"
	 width="28.346px" height="28.346px" viewBox="0 0 28.346 28.346" enable-background="new 0 0 28.346 28.346" xml:space="preserve">
<g>
	<path fill="current" d="M19.939,1.052H8.407c-4.145,0-7.518,3.372-7.518,7.518v11.208c0,4.144,3.373,7.517,7.518,7.517h11.532
		c4.145,0,7.518-3.373,7.518-7.517V8.57C27.456,4.424,24.083,1.052,19.939,1.052z M25.027,19.778c0,2.805-2.283,5.088-5.088,5.088
		H8.407c-2.804,0-5.086-2.283-5.086-5.088V8.57c0-2.805,2.283-5.089,5.086-5.089h11.532c2.805,0,5.088,2.284,5.088,5.089V19.778z"/>
	<path fill="current" d="M14.173,7.286c-3.799,0-6.887,3.089-6.887,6.888c0,3.798,3.088,6.885,6.887,6.885s6.887-3.087,6.887-6.885
		C21.06,10.375,17.972,7.286,14.173,7.286z M14.173,18.629c-2.458,0-4.457-1.997-4.457-4.455s1.999-4.457,4.457-4.457
		c2.457,0,4.455,1.999,4.455,4.457S16.63,18.629,14.173,18.629z"/>
	<circle fill="current" cx="21.302" cy="7.154" r="1.62"/>
</g>
</svg>
