<?xml version="1.0" encoding="utf-8"?>
<!-- Generator: Adobe Illustrator 15.0.0, SVG Export Plug-In . SVG Version: 6.00 Build 0)  -->
<!DOCTYPE svg PUBLIC "-//W3C//DTD SVG 1.1//EN" "http://www.w3.org/Graphics/SVG/1.1/DTD/svg11.dtd">
<svg version="1.1" id="Layer_1" xmlns="http://www.w3.org/2000/svg" xmlns:xlink="http://www.w3.org/1999/xlink" x="0px" y="0px"
	 width="28.346px" height="28.346px" viewBox="0 0 28.346 28.346" enable-background="new 0 0 28.346 28.346" xml:space="preserve">
<circle fill="current" cx="14.173" cy="14.173" r="13.613"/>
<g>
	<g>
		<path fill="#FFFFFF" d="M17.683,22.161h-7.02c-2.523,0-4.577-2.053-4.577-4.575v-6.824c0-2.524,2.054-4.577,4.577-4.577h7.02
			c2.525,0,4.578,2.053,4.578,4.577v6.824C22.261,20.109,20.208,22.161,17.683,22.161z M10.663,7.664
			c-1.707,0-3.097,1.39-3.097,3.098v6.824c0,1.706,1.39,3.096,3.097,3.096h7.02c1.709,0,3.098-1.39,3.098-3.096v-6.824
			c0-1.708-1.389-3.098-3.098-3.098H10.663z"/>
	</g>
	<g>
		<path fill="#FFFFFF" d="M14.174,18.366c-2.313,0-4.193-1.88-4.193-4.193c0-2.312,1.88-4.192,4.193-4.192
			c2.312,0,4.193,1.88,4.193,4.192C18.366,16.487,16.486,18.366,14.174,18.366z M14.174,11.46c-1.497,0-2.713,1.217-2.713,2.713
			c0,1.497,1.216,2.713,2.713,2.713c1.496,0,2.712-1.216,2.712-2.713C16.886,12.677,15.669,11.46,14.174,11.46z"/>
	</g>
	<g>
		<circle fill="#FFFFFF" cx="18.515" cy="9.899" r="0.986"/>
	</g>
</g>
</svg>
