<?xml version="1.0" encoding="utf-8"?>
<!-- Generator: Adobe Illustrator 15.0.0, SVG Export Plug-In . SVG Version: 6.00 Build 0)  -->
<!DOCTYPE svg PUBLIC "-//W3C//DTD SVG 1.1//EN" "http://www.w3.org/Graphics/SVG/1.1/DTD/svg11.dtd">
<svg version="1.1" id="Layer_1" xmlns="http://www.w3.org/2000/svg" xmlns:xlink="http://www.w3.org/1999/xlink" x="0px" y="0px"
	 width="28.346px" height="28.346px" viewBox="0 0 28.346 28.346" enable-background="new 0 0 28.346 28.346" xml:space="preserve">
<circle fill="current" cx="14.173" cy="14.173" r="13.613"/>
<g>
	<path fill="#FFFFFF" d="M24.729,16.185l-1.786-2.416l1.474-1.475c0.014-0.017,0.031-0.03,0.045-0.045l0.013-0.016v-0.001
		c0.15-0.166,0.242-0.388,0.242-0.63c0-0.522-0.423-0.947-0.946-0.947c-0.282,0-0.533,0.125-0.71,0.321l-1.815,1.816v-1.191
		c0-0.522-0.425-0.947-0.946-0.947c-0.523,0-0.946,0.424-0.946,0.947v4.987c-0.135-0.266-0.407-0.457-0.724-0.457h-2.503v-4.425
		h-0.003c0.003-0.036,0.003-0.073,0.003-0.11c0-0.524-0.422-0.948-0.942-0.948c-0.526,0-0.948,0.424-0.948,0.948
		c0,0.037,0.002,0.074,0.006,0.11h-0.006v4.589l-2.251-4.943c-0.08-0.442-0.466-0.777-0.932-0.777c-0.006,0-0.011,0-0.017,0
		c-0.004,0-0.01,0-0.015,0c-0.466,0-0.854,0.335-0.932,0.777l-2.295,5.039c-0.014,0.025-0.025,0.053-0.036,0.08l-0.001,0.004
		c-0.043,0.109-0.067,0.223-0.067,0.346c0,0.523,0.425,0.949,0.947,0.949c0.444,0,0.818-0.311,0.918-0.723l0.307-0.67h2.349
		l0.308,0.67c0.037,0.156,0.112,0.293,0.215,0.406c0.001,0.004,0.004,0.006,0.007,0.006c0.033,0.037,0.068,0.072,0.106,0.102
		c0.003,0.002,0.004,0.002,0.006,0.006c0.038,0.029,0.078,0.059,0.12,0.08c0.002,0.002,0.005,0.002,0.006,0.002
		c0.042,0.023,0.084,0.043,0.13,0.063c0.008,0.002,0.015,0.004,0.021,0.008c0.042,0.012,0.088,0.023,0.135,0.033
		c0.008,0.004,0.018,0.004,0.025,0.004c0.047,0.006,0.097,0.014,0.146,0.014h0.002c0.36,0,0.673-0.201,0.832-0.498
		c0.02-0.031,0.024-0.068,0.042-0.104c0.132,0.314,0.425,0.545,0.783,0.576v0.025h3.534v-0.02c0.381,0,0.699-0.268,0.784-0.625
		c0.131,0.363,0.475,0.625,0.886,0.625c0.521,0,0.946-0.424,0.946-0.947V15.47l0.347-0.346l1.646,2.227l0,0
		c0.173,0.227,0.445,0.373,0.756,0.373c0.52,0,0.944-0.422,0.944-0.943C24.937,16.556,24.859,16.347,24.729,16.185z M10.624,14.719
		l0.411-0.896l0.413,0.896H10.624z"/>
	<path fill="#FFFFFF" d="M9.296,11.44c0-0.478-0.386-0.864-0.864-0.864H4.21v0.002c-0.446,0.034-0.801,0.406-0.801,0.862
		c0,0.456,0.354,0.829,0.801,0.861v0.003h1.271v4.476h0.001c0,0.016-0.001,0.027-0.001,0.041c0,0.523,0.423,0.949,0.945,0.949
		s0.946-0.426,0.946-0.949c0-0.014,0-0.025,0-0.041l0,0v-4.476h1.06C8.91,12.305,9.296,11.917,9.296,11.44z"/>
</g>
</svg>
